#Comment line ignore any data following # character 
#Hierarchical Translation and Rotation (.htr) file 
[Header]	
#Header keywords are followed by a single value 
FileType HTR		#Single word string
DataType HTRS		#Translation followed by rotation and scale data
FileVersion 1		#integer
NumSegments 84		#integer
NumFrames 2		#integer
DataFrameRate 30		#integer, data frame rate in this file
EulerRotationOrder ZYX
CalibrationUnits mm
RotationUnits Degrees
GlobalAxisofGravity Y
BoneLengthAxis Y
ScaleFactor 1.00
[SegmentNames&Hierarchy]
#CHILD	PARENT
MASTER GLOBAL
root MASTER
chest root
L_mid_tent01 root
R_mid_tent01 root
spine01 root
Bip01_Neck chest
L_humerus chest
R_humerus chest
weapon_bone chest
Bip01_Head Bip01_Neck
eye_left_bone Bip01_Head
eye_right_bone Bip01_Head
L_forearm L_humerus
L_front_hand L_forearm
L_weapon_bone L_forearm
L_front_hand01_01 L_front_hand
L_front_hand02_01 L_front_hand
L_front_hand03_01 L_front_hand
L_front_hand01_02 L_front_hand01_01
L_front_hand02_02 L_front_hand02_01
L_front_hand03_02 L_front_hand03_01
R_forearm R_humerus
R_front_hand R_forearm
R_weapon_bone R_forearm
R_front_hand01_01 R_front_hand
R_front_hand02_01 R_front_hand
R_front_hand03_01 R_front_hand
R_front_hand01_02 R_front_hand01_01
R_front_hand02_02 R_front_hand02_01
R_front_hand03_02 R_front_hand03_01
null_rope01_connect L_mid_tent01
Rope1_Seg01 null_rope01_connect
Rope1_Seg02 Rope1_Seg01
Rope1_Seg03 Rope1_Seg02
Rope1_Seg04 Rope1_Seg03
Rope1_Seg05 Rope1_Seg04
Rope1_Seg06 Rope1_Seg05
Rope1_Seg07 Rope1_Seg06
Rope1_Seg09 Rope1_Seg07
L_mid_hand01 Rope1_Seg09
L_mid_hand02 Rope1_Seg09
L_mid_hand03 Rope1_Seg09
null_rope02_connect R_mid_tent01
Rope2_Seg01 null_rope02_connect
Rope2_Seg02 Rope2_Seg01
Rope2_Seg03 Rope2_Seg02
Rope2_Seg04 Rope2_Seg03
Rope2_Seg05 Rope2_Seg04
Rope2_Seg06 Rope2_Seg05
Rope2_Seg07 Rope2_Seg06
Rope2_Seg09 Rope2_Seg07
R_mid_hand01 Rope2_Seg09
R_mid_hand02 Rope2_Seg09
R_mid_hand03 Rope2_Seg09
spine02 spine01
spine03 spine02
pelvis spine03
null_rope03_connect pelvis
null_rope04_connect pelvis
Rope3_Seg01 null_rope03_connect
Rope3_Seg02 Rope3_Seg01
Rope3_Seg03 Rope3_Seg02
Rope3_Seg04 Rope3_Seg03
Rope3_Seg05 Rope3_Seg04
Rope3_Seg06 Rope3_Seg05
Rope3_Seg07 Rope3_Seg06
Rope3_Seg08 Rope3_Seg07
Rope3_Seg09 Rope3_Seg08
R_rear_hand01 Rope3_Seg09
R_rear_hand02 Rope3_Seg09
R_rear_hand03 Rope3_Seg09
Rope4_Seg01 null_rope04_connect
Rope4_Seg02 Rope4_Seg01
Rope4_Seg03 Rope4_Seg02
Rope4_Seg04 Rope4_Seg03
Rope4_Seg05 Rope4_Seg04
Rope4_Seg06 Rope4_Seg05
Rope4_Seg07 Rope4_Seg06
Rope4_Seg08 Rope4_Seg07
Rope4_Seg09 Rope4_Seg08
L_rear_hand01 Rope4_Seg09
L_rear_hand02 Rope4_Seg09
L_rear_hand03 Rope4_Seg09
[BasePosition]
#SegmentName Tx, Ty, Tz, Rx, Ry, Rz, BoneLength
MASTER 0.000000 0.000000 0.000000 -90.000000 0.000000 0.000000 10.000000 
root 0.000000 0.000000 0.000000 0.000000 0.000000 0.000000 10.000000 
chest 0.000000 0.000000 0.000000 0.000000 0.000000 0.000000 10.000000 
L_mid_tent01 0.000000 0.000000 0.000000 0.000000 0.000000 0.000000 10.000000 
R_mid_tent01 0.000000 0.000000 0.000000 0.000000 0.000000 0.000000 10.000000 
spine01 0.000000 0.000000 0.000000 0.000000 0.000000 0.000000 10.000000 
Bip01_Neck 0.000000 0.000000 0.000000 0.000000 0.000000 0.000000 10.000000 
L_humerus 0.000000 0.000000 0.000000 0.000000 0.000000 0.000000 10.000000 
R_humerus 0.000000 0.000000 0.000000 0.000000 0.000000 0.000000 10.000000 
weapon_bone 0.000000 0.000000 0.000000 0.000000 0.000000 0.000000 10.000000 
Bip01_Head 0.000000 0.000000 0.000000 0.000000 0.000000 0.000000 10.000000 
eye_left_bone 0.000000 0.000000 0.000000 0.000000 0.000000 0.000000 10.000000 
eye_right_bone 0.000000 0.000000 0.000000 0.000000 0.000000 0.000000 10.000000 
L_forearm 0.000000 0.000000 0.000000 0.000000 0.000000 0.000000 10.000000 
L_front_hand 0.000000 0.000000 0.000000 0.000000 0.000000 0.000000 10.000000 
L_weapon_bone 0.000000 0.000000 0.000000 0.000000 0.000000 0.000000 10.000000 
L_front_hand01_01 0.000000 0.000000 0.000000 0.000000 0.000000 0.000000 10.000000 
L_front_hand02_01 0.000000 0.000000 0.000000 0.000000 0.000000 0.000000 10.000000 
L_front_hand03_01 0.000000 0.000000 0.000000 0.000000 0.000000 0.000000 10.000000 
L_front_hand01_02 0.000000 0.000000 0.000000 0.000000 0.000000 0.000000 10.000000 
L_front_hand02_02 0.000000 0.000000 0.000000 0.000000 0.000000 0.000000 10.000000 
L_front_hand03_02 0.000000 0.000000 0.000000 0.000000 0.000000 0.000000 10.000000 
R_forearm 0.000000 0.000000 0.000000 0.000000 0.000000 0.000000 10.000000 
R_front_hand 0.000000 0.000000 0.000000 0.000000 0.000000 0.000000 10.000000 
R_weapon_bone 0.000000 0.000000 0.000000 0.000000 0.000000 0.000000 10.000000 
R_front_hand01_01 0.000000 0.000000 0.000000 0.000000 0.000000 0.000000 10.000000 
R_front_hand02_01 0.000000 0.000000 0.000000 0.000000 0.000000 0.000000 10.000000 
R_front_hand03_01 0.000000 0.000000 0.000000 0.000000 0.000000 0.000000 10.000000 
R_front_hand01_02 0.000000 0.000000 0.000000 0.000000 0.000000 0.000000 10.000000 
R_front_hand02_02 0.000000 0.000000 0.000000 0.000000 0.000000 0.000000 10.000000 
R_front_hand03_02 0.000000 0.000000 0.000000 0.000000 0.000000 0.000000 10.000000 
null_rope01_connect 0.000000 0.000000 0.000000 0.000000 0.000000 0.000000 10.000000 
Rope1_Seg01 0.000000 0.000000 0.000000 0.000000 0.000000 0.000000 10.000000 
Rope1_Seg02 0.000000 0.000000 0.000000 0.000000 0.000000 0.000000 10.000000 
Rope1_Seg03 0.000000 0.000000 0.000000 0.000000 0.000000 0.000000 10.000000 
Rope1_Seg04 0.000000 0.000000 0.000000 0.000000 0.000000 0.000000 10.000000 
Rope1_Seg05 0.000000 0.000000 0.000000 0.000000 0.000000 0.000000 10.000000 
Rope1_Seg06 0.000000 0.000000 0.000000 0.000000 0.000000 0.000000 10.000000 
Rope1_Seg07 0.000000 0.000000 0.000000 0.000000 0.000000 0.000000 10.000000 
Rope1_Seg09 0.000000 0.000000 0.000000 0.000000 0.000000 0.000000 10.000000 
L_mid_hand01 0.000000 0.000000 0.000000 0.000000 0.000000 0.000000 10.000000 
L_mid_hand02 0.000000 0.000000 0.000000 0.000000 0.000000 0.000000 10.000000 
L_mid_hand03 0.000000 0.000000 0.000000 0.000000 0.000000 0.000000 10.000000 
null_rope02_connect 0.000000 0.000000 0.000000 0.000000 0.000000 0.000000 10.000000 
Rope2_Seg01 0.000000 0.000000 0.000000 0.000000 0.000000 0.000000 10.000000 
Rope2_Seg02 0.000000 0.000000 0.000000 0.000000 0.000000 0.000000 10.000000 
Rope2_Seg03 0.000000 0.000000 0.000000 0.000000 0.000000 0.000000 10.000000 
Rope2_Seg04 0.000000 0.000000 0.000000 0.000000 0.000000 0.000000 10.000000 
Rope2_Seg05 0.000000 0.000000 0.000000 0.000000 0.000000 0.000000 10.000000 
Rope2_Seg06 0.000000 0.000000 0.000000 0.000000 0.000000 0.000000 10.000000 
Rope2_Seg07 0.000000 0.000000 0.000000 0.000000 0.000000 0.000000 10.000000 
Rope2_Seg09 0.000000 0.000000 0.000000 0.000000 0.000000 0.000000 10.000000 
R_mid_hand01 0.000000 0.000000 0.000000 0.000000 0.000000 0.000000 10.000000 
R_mid_hand02 0.000000 0.000000 0.000000 0.000000 0.000000 0.000000 10.000000 
R_mid_hand03 0.000000 0.000000 0.000000 0.000000 0.000000 0.000000 10.000000 
spine02 0.000000 0.000000 0.000000 0.000000 0.000000 0.000000 10.000000 
spine03 0.000000 0.000000 0.000000 0.000000 0.000000 0.000000 10.000000 
pelvis 0.000000 0.000000 0.000000 0.000000 0.000000 0.000000 10.000000 
null_rope03_connect 0.000000 0.000000 0.000000 0.000000 0.000000 0.000000 10.000000 
null_rope04_connect 0.000000 0.000000 0.000000 0.000000 0.000000 0.000000 10.000000 
Rope3_Seg01 0.000000 0.000000 0.000000 0.000000 0.000000 0.000000 10.000000 
Rope3_Seg02 0.000000 0.000000 0.000000 0.000000 0.000000 0.000000 10.000000 
Rope3_Seg03 0.000000 0.000000 0.000000 0.000000 0.000000 0.000000 10.000000 
Rope3_Seg04 0.000000 0.000000 0.000000 0.000000 0.000000 0.000000 10.000000 
Rope3_Seg05 0.000000 0.000000 0.000000 0.000000 0.000000 0.000000 10.000000 
Rope3_Seg06 0.000000 0.000000 0.000000 0.000000 0.000000 0.000000 10.000000 
Rope3_Seg07 0.000000 0.000000 0.000000 0.000000 0.000000 0.000000 10.000000 
Rope3_Seg08 0.000000 0.000000 0.000000 0.000000 0.000000 0.000000 10.000000 
Rope3_Seg09 0.000000 0.000000 0.000000 0.000000 0.000000 0.000000 10.000000 
R_rear_hand01 0.000000 0.000000 0.000000 0.000000 0.000000 0.000000 10.000000 
R_rear_hand02 0.000000 0.000000 0.000000 0.000000 0.000000 0.000000 10.000000 
R_rear_hand03 0.000000 0.000000 0.000000 0.000000 0.000000 0.000000 10.000000 
Rope4_Seg01 0.000000 0.000000 0.000000 0.000000 0.000000 0.000000 10.000000 
Rope4_Seg02 0.000000 0.000000 0.000000 0.000000 0.000000 0.000000 10.000000 
Rope4_Seg03 0.000000 0.000000 0.000000 0.000000 0.000000 0.000000 10.000000 
Rope4_Seg04 0.000000 0.000000 0.000000 0.000000 0.000000 0.000000 10.000000 
Rope4_Seg05 0.000000 0.000000 0.000000 0.000000 0.000000 0.000000 10.000000 
Rope4_Seg06 0.000000 0.000000 0.000000 0.000000 0.000000 0.000000 10.000000 
Rope4_Seg07 0.000000 0.000000 0.000000 0.000000 0.000000 0.000000 10.000000 
Rope4_Seg08 0.000000 0.000000 0.000000 0.000000 0.000000 0.000000 10.000000 
Rope4_Seg09 0.000000 0.000000 0.000000 0.000000 0.000000 0.000000 10.000000 
L_rear_hand01 0.000000 0.000000 0.000000 0.000000 0.000000 0.000000 10.000000 
L_rear_hand02 0.000000 0.000000 0.000000 0.000000 0.000000 0.000000 10.000000 
L_rear_hand03 0.000000 0.000000 0.000000 0.000000 0.000000 0.000000 10.000000 
#Beginning of Data. Separated by tabs
#Fr	Tx	Ty	Tz	Rx	Ry	Rz	SF
[MASTER]
31 -115.822845 2362.138916 845.007568 0.001660 0.001660 0.001660 2511.404541
32 -115.822845 2375.294434 845.397888 0.001660 0.001660 0.001660 2523.912842
[root]
31 2.696667 444.668945 1104.892578 -91.717117 -36.022766 -89.872360 1191.018677
32 2.696667 444.668915 1104.892578 -91.558556 -35.580975 -89.998665 1191.018677
[chest]
31 -84.512650 -34.090519 0.000000 -11.861947 -25.654465 150.880814 91.129311
32 -84.512650 -34.090519 0.000000 -11.062816 -24.983730 149.909348 91.129311
[L_mid_tent01]
31 27.299150 22.179228 -249.918716 -3.228872 35.686756 62.953136 252.381714
32 27.299152 22.179232 -249.918716 -4.997968 34.769783 59.471306 252.381714
[R_mid_tent01]
31 23.228794 24.509907 226.238495 173.895706 -30.891880 58.389252 228.744751
32 23.228794 24.509907 226.238495 175.397232 -30.477465 56.145664 228.744751
[spine01]
31 -0.361383 -0.195265 0.000000 -0.000001 -0.000007 22.052340 0.410763
32 -0.361383 -0.195265 0.000000 -0.000001 -0.000007 22.052340 0.410763
[Bip01_Neck]
31 165.484543 71.581718 0.000119 176.643677 -1.657967 43.431911 180.302734
32 165.484543 71.581718 0.000119 176.643677 -1.657967 43.431911 180.302734
[L_humerus]
31 -13.983130 -135.272980 -120.471481 151.121033 74.613686 -117.480255 181.680161
32 -13.983130 -135.272980 -120.471481 143.641815 78.346489 -125.190323 181.680161
[R_humerus]
31 -13.983309 -135.273102 125.287651 -172.271027 -71.663696 -92.712219 184.909012
32 -13.983309 -135.273102 125.287651 -172.479858 -75.866394 -92.533882 184.909012
[weapon_bone]
31 235.964890 -300.705902 0.000000 0.000000 -89.951546 -128.212341 382.234833
32 235.964890 -300.705902 0.000000 0.000000 -89.951546 -128.212341 382.234833
[Bip01_Head]
31 217.316284 193.779602 33.482967 32.574516 13.922997 -44.059910 293.083618
32 217.316330 193.779602 33.482983 32.574520 13.922998 -44.059910 293.083649
[eye_left_bone]
31 -24.626970 125.451866 -64.772606 0.000000 -90.000000 -99.840431 143.318359
32 -24.626970 125.451866 -64.772606 0.000000 -90.000000 -99.840431 143.318359
[eye_right_bone]
31 -24.626970 125.451866 64.327362 0.000000 -89.965736 80.156380 143.117676
32 -24.626970 125.451866 64.327362 0.000000 -89.965736 80.156380 143.117676
[L_forearm]
31 322.776093 0.000000 -0.000119 0.000297 -0.002328 -104.533829 322.776093
32 322.776093 0.000000 -0.000119 0.000280 -0.002330 -103.724915 322.776093
[L_front_hand]
31 241.149185 -0.042021 -3.300071 0.836591 -1.835726 -27.423458 241.171753
32 241.149185 -0.042021 -3.300071 0.836591 -1.835726 -27.423458 241.171753
[L_weapon_bone]
31 156.183838 0.000000 0.000000 0.000014 0.000007 0.000001 156.183838
32 156.183838 0.000000 0.000000 0.000014 0.000007 0.000001 156.183838
[L_front_hand01_01]
31 86.095154 20.947098 -0.655860 -0.366594 -0.477154 75.385574 88.609184
32 86.095154 20.947098 -0.655860 -0.366594 -0.477154 75.385574 88.609184
[L_front_hand02_01]
31 86.935165 -11.437475 24.513514 154.399811 -59.883842 -61.369598 91.046425
32 86.935165 -11.437475 24.513514 154.399796 -59.883835 -61.369587 91.046425
[L_front_hand03_01]
31 86.637497 -14.123976 -20.424902 -153.913849 58.118122 -62.702850 90.126129
32 86.637497 -14.123976 -20.424902 -153.913849 58.118122 -62.702866 90.126129
[L_front_hand01_02]
31 71.020905 -0.000179 0.000030 0.001476 0.001825 -12.083249 71.020905
32 71.020905 -0.000179 0.000030 0.001441 0.001853 -14.258900 71.020905
[L_front_hand02_02]
31 71.020927 -0.000119 0.000060 0.001476 0.001825 -12.083249 71.020927
32 71.020927 -0.000119 0.000060 0.001441 0.001853 -14.258900 71.020927
[L_front_hand03_02]
31 71.020905 -0.000060 0.000060 0.001476 0.001825 -12.083249 71.020905
32 71.020905 -0.000060 0.000060 0.001441 0.001853 -14.258900 71.020905
[R_forearm]
31 322.776428 -0.000060 0.000030 0.209242 0.047051 -103.498131 322.776428
32 322.776428 -0.000060 0.000030 0.206492 0.041655 -102.658104 322.776428
[R_front_hand]
31 238.847015 -0.006795 2.210259 42.936222 -10.646152 -26.312963 238.857239
32 238.847015 -0.006795 2.210259 42.936222 -10.646152 -26.312963 238.857239
[R_weapon_bone]
31 155.664093 0.002503 -0.000030 0.003487 0.001180 -90.988930 155.664078
32 155.664093 0.002503 -0.000030 0.003487 0.001180 -90.988930 155.664078
[R_front_hand01_01]
31 87.624611 14.231146 22.918642 -154.633499 -59.950619 61.746044 91.683487
32 87.624611 14.231146 22.918642 -154.633499 -59.950619 61.746044 91.683487
[R_front_hand02_01]
31 89.356956 14.367283 -19.491137 154.602661 58.302849 63.744389 92.579636
32 89.356956 14.367283 -19.491137 154.602676 58.302864 63.744389 92.579636
[R_front_hand03_01]
31 87.286232 -22.307278 -0.143439 0.162155 -0.423168 -75.767921 90.091743
32 87.286232 -22.307278 -0.143439 0.162155 -0.423168 -75.767921 90.091743
[R_front_hand01_02]
31 71.020905 0.000060 0.000119 0.001813 0.001491 11.142054 71.020905
32 71.020905 0.000060 0.000119 0.001828 0.001472 12.300462 71.020905
[R_front_hand02_02]
31 71.020844 -0.000030 -0.000119 0.001813 0.001491 11.142054 71.020836
32 71.020844 -0.000030 -0.000119 0.001828 0.001472 12.300462 71.020836
[R_front_hand03_02]
31 71.020905 0.000000 0.000030 0.001813 0.001491 11.142054 71.020905
32 71.020905 0.000000 0.000030 0.001828 0.001472 12.300462 71.020905
[null_rope01_connect]
31 328.732483 0.000000 -0.000238 -123.380814 -52.690716 -174.354050 328.732483
32 328.732483 0.000000 -0.000238 -123.397125 -53.468296 -171.870911 328.732483
[Rope1_Seg01]
31 -0.000024 0.000014 0.000097 122.161934 23.135563 172.764938 0.000101
32 -0.000025 0.000013 0.000101 122.363564 25.832226 168.656097 0.000105
[Rope1_Seg02]
31 139.999863 -0.000179 0.000000 3.011796 9.557532 -18.200266 139.999863
32 139.999863 -0.000179 0.000000 1.442392 10.879838 -18.107578 139.999863
[Rope1_Seg03]
31 139.999924 0.000060 -0.000060 1.457804 2.148526 -4.176855 139.999924
32 139.999924 0.000060 -0.000060 -0.609090 3.714261 -3.566626 139.999924
[Rope1_Seg04]
31 139.999924 -0.000060 -0.000119 97.162674 13.665687 -41.444744 139.999924
32 139.999924 -0.000060 -0.000119 81.411484 13.072346 -38.165672 139.999924
[Rope1_Seg05]
31 139.999832 0.000119 -0.000060 40.536438 -36.721931 -5.789521 139.999832
32 139.999832 0.000119 -0.000060 60.568512 -36.338757 -19.021206 139.999832
[Rope1_Seg06]
31 139.999954 0.000119 -0.000060 1.788442 -8.301987 4.991551 139.999954
32 139.999954 0.000119 -0.000060 2.078556 -8.954679 5.184509 139.999954
[Rope1_Seg07]
31 139.999985 0.000060 0.000000 0.654499 -3.976446 2.582201 139.999985
32 139.999985 0.000060 0.000000 0.731394 -4.186612 2.652630 139.999985
[Rope1_Seg09]
31 121.602913 0.000119 -0.000089 -89.793175 -1.359789 0.847147 121.602913
32 121.602913 0.000119 -0.000089 -89.793175 -1.359789 0.847147 121.602913
[L_mid_hand01]
31 103.859421 1.038730 8.195221 130.544342 -67.584518 -38.866932 104.187431
32 103.859421 1.038730 8.195221 130.544373 -67.584534 -38.866943 104.187431
[L_mid_hand02]
31 105.572853 -4.139662 -10.864139 -168.923172 43.409309 -73.498894 106.211075
32 105.572853 -4.139662 -10.864139 -168.923172 43.409317 -73.498901 106.211075
[L_mid_hand03]
31 104.641464 17.579376 -3.913581 -6.012625 17.808172 74.893669 106.179977
32 104.641464 17.579376 -3.913581 -6.012628 17.808178 74.893669 106.179977
[null_rope02_connect]
31 328.732849 0.000179 -0.000119 -98.550865 59.674175 12.467393 328.732849
32 328.732849 0.000179 -0.000119 -99.693298 60.340679 9.900812 328.732849
[Rope2_Seg01]
31 0.000062 0.000055 0.000000 -57.446548 20.135624 11.565135 0.000083
32 0.000063 0.000052 0.000000 -57.980034 21.078960 12.437689 0.000082
[Rope2_Seg02]
31 139.999741 -0.000060 -0.000119 -3.140206 7.151654 0.400244 139.999756
32 139.999741 -0.000060 -0.000119 -2.964961 6.879121 0.437995 139.999756
[Rope2_Seg03]
31 140.000107 0.000030 0.000000 -7.440668 11.108112 1.249061 140.000107
32 140.000107 0.000030 0.000000 -6.855599 10.665063 1.247004 140.000107
[Rope2_Seg04]
31 139.999802 0.000000 -0.000060 -28.305161 18.809809 5.869473 139.999802
32 139.999802 0.000000 -0.000060 -25.091150 18.177675 5.406030 139.999802
[Rope2_Seg05]
31 139.999985 -0.000060 0.000119 -49.391994 16.001152 16.739365 139.999985
32 139.999985 -0.000060 0.000119 -49.616695 17.316252 16.165150 139.999985
[Rope2_Seg06]
31 139.999893 -0.000030 -0.000119 -23.956110 4.150095 13.072444 139.999893
32 139.999893 -0.000030 -0.000119 -24.608292 4.270682 13.324881 139.999893
[Rope2_Seg07]
31 139.999893 0.000060 -0.000060 -17.336546 0.585169 13.446738 139.999893
32 139.999893 0.000060 -0.000060 -17.422937 0.942066 13.146573 139.999893
[Rope2_Seg09]
31 121.338966 0.000089 -0.000060 33.793236 -1.359788 -0.847141 121.338966
32 121.338966 0.000089 -0.000060 33.793236 -1.359788 -0.847141 121.338966
[R_mid_hand01]
31 104.680779 11.144459 -10.335981 -16.212063 45.237240 70.462845 105.778534
32 104.680779 11.144459 -10.335981 -16.212063 45.237247 70.462852 105.778534
[R_mid_hand02]
31 104.070427 2.443552 8.231699 49.067371 -67.749794 39.286461 104.424065
32 104.070427 2.443552 8.231699 49.067368 -67.749779 39.286465 104.424065
[R_mid_hand03]
31 106.028137 -11.221827 -5.996406 -177.101105 15.551026 -76.585571 106.788818
32 106.028137 -11.221827 -5.996406 -177.101105 15.551026 -76.585571 106.788818
[spine02]
31 129.756927 0.001550 0.000119 0.461523 -4.033607 -14.398869 129.756927
32 129.756927 0.001550 0.000119 0.453092 -4.034625 -14.275592 129.756927
[spine03]
31 78.613953 0.081732 -4.898994 1.957590 3.802605 17.390261 78.766495
32 78.613953 0.081735 -4.898993 1.952833 3.805480 17.315050 78.766495
[pelvis]
31 169.435242 0.051022 0.000000 -0.068304 -0.178525 15.963641 169.435257
32 169.435242 0.051022 0.000000 -0.067246 -0.178731 15.808081 169.435257
[null_rope03_connect]
31 -1.257226 -2.466202 137.391083 0.000000 -89.581284 85.019104 137.418976
32 -1.257226 -2.466202 137.391083 0.000000 -89.624657 84.687561 137.418976
[null_rope04_connect]
31 -1.259640 -2.480268 -137.844437 0.000000 -89.581284 85.019104 137.872513
32 -1.259640 -2.480268 -137.844437 0.000000 -89.624657 84.687561 137.872513
[Rope3_Seg01]
31 0.000000 0.000000 0.000000 74.290672 -76.542999 57.427288 0.000000
32 0.000000 0.000000 0.000000 74.958702 -76.971123 56.935719 0.000000
[Rope3_Seg02]
31 139.999924 -0.000119 0.000060 9.575053 -18.590916 -0.492936 139.999924
32 139.999924 -0.000119 0.000060 9.462625 -18.545120 -0.425421 139.999924
[Rope3_Seg03]
31 139.999924 -0.000119 0.000119 20.267530 -25.704887 0.198466 139.999924
32 139.999924 -0.000119 0.000119 20.057077 -25.702169 0.262349 139.999924
[Rope3_Seg04]
31 139.999924 0.000119 0.000000 19.537312 -19.163759 10.379533 139.999924
32 139.999924 0.000119 0.000000 19.385324 -19.200842 10.320252 139.999924
[Rope3_Seg05]
31 139.999924 -0.000238 0.000060 11.039275 -10.907461 42.424805 139.999924
32 139.999924 -0.000238 0.000060 10.977871 -11.081026 42.348289 139.999924
[Rope3_Seg06]
31 139.999893 -0.000119 -0.000060 0.008217 -0.254195 26.356596 139.999893
32 139.999893 -0.000119 -0.000060 -0.022741 -0.363809 26.422791 139.999893
[Rope3_Seg07]
31 139.999771 0.000060 -0.000119 -1.194695 -0.485306 9.439506 139.999771
32 139.999771 0.000060 -0.000119 -1.215469 -0.525642 9.452462 139.999771
[Rope3_Seg08]
31 139.999985 -0.000060 0.000000 -0.574836 -0.317659 4.420916 139.999985
32 139.999985 -0.000060 0.000000 -0.587267 -0.340262 4.424371 139.999985
[Rope3_Seg09]
31 90.185997 -0.000179 -0.000060 89.793228 -1.359877 -0.847183 90.185997
32 90.185997 -0.000179 -0.000060 89.793228 -1.359877 -0.847183 90.185997
[R_rear_hand01]
31 103.366196 -6.073594 -10.757982 -177.714203 24.565960 -73.910950 104.101845
32 103.366196 -6.073594 -10.757982 -177.714203 24.565960 -73.910950 104.101845
[R_rear_hand02]
31 100.509819 12.039542 -7.992327 -12.874827 36.868488 72.167213 101.543350
32 100.509819 12.039542 -7.992327 -12.874829 36.868488 72.167213 101.543350
[R_rear_hand03]
31 101.539970 5.215704 5.435467 71.484581 -71.816628 21.513813 101.819031
32 101.539970 5.215704 5.435467 71.484581 -71.816628 21.513813 101.819031
[Rope4_Seg01]
31 0.000010 0.000038 -0.000114 166.886154 -33.519779 164.040359 0.000121
32 0.000010 0.000038 -0.000114 166.056778 -33.635136 164.286972 0.000121
[Rope4_Seg02]
31 139.999985 0.000060 0.000119 -96.060455 -12.787368 -18.051949 139.999985
32 139.999985 0.000060 0.000119 -95.459442 -12.724671 -18.112844 139.999985
[Rope4_Seg03]
31 139.999924 0.000000 -0.000238 -50.876804 5.121400 -11.746757 139.999924
32 139.999924 0.000000 -0.000238 -51.032448 5.138972 -11.857820 139.999924
[Rope4_Seg04]
31 139.999985 0.000000 0.000119 15.956299 14.664973 17.657278 139.999985
32 139.999985 0.000000 0.000119 15.503759 14.608472 17.276108 139.999985
[Rope4_Seg05]
31 139.999802 -0.000060 -0.000119 15.265620 25.505747 30.422916 139.999802
32 139.999802 -0.000060 -0.000119 15.403197 25.388601 30.541119 139.999802
[Rope4_Seg06]
31 139.999924 0.000000 0.000060 1.268590 11.035843 8.150777 139.999924
32 139.999924 0.000000 0.000060 1.304019 11.142396 8.280723 139.999924
[Rope4_Seg07]
31 139.999802 0.000000 0.000000 0.272798 5.398334 3.753340 139.999802
32 139.999802 0.000000 0.000000 0.275430 5.427938 3.788254 139.999802
[Rope4_Seg08]
31 139.999924 0.000000 0.000119 -1.478078 2.856999 1.973639 139.999924
32 139.999924 0.000000 0.000119 -1.477460 2.872027 1.988318 139.999924
[Rope4_Seg09]
31 90.185791 0.000060 0.000060 -135.617828 2.228885 0.850567 90.185791
32 90.185791 0.000060 0.000060 -135.617828 2.228885 0.850567 90.185791
[L_rear_hand01]
31 101.696655 -8.392275 -7.654577 -12.874829 -36.868488 107.832764 102.329041
32 101.696655 -8.392275 -7.654577 -12.874829 -36.868488 107.832764 102.329041
[L_rear_hand02]
31 102.726799 -1.568258 5.773216 71.484581 71.816628 158.486160 102.900848
32 102.726799 -1.568258 5.773216 71.484581 71.816628 158.486160 102.900848
[L_rear_hand03]
31 104.552910 9.721220 -10.420293 -177.714203 -24.565960 -106.089035 105.519653
32 104.552910 9.721220 -10.420293 -177.714203 -24.565960 -106.089035 105.519653
